<?xml version="1.0" encoding="UTF-8"?>
<!DOCTYPE svg PUBLIC "-//W3C//DTD SVG 1.1//EN" "http://www.w3.org/Graphics/SVG/1.1/DTD/svg11.dtd">
<svg xmlns="http://www.w3.org/2000/svg" version="1.1" width="546px" height="457px" style="shape-rendering:geometricPrecision; text-rendering:geometricPrecision; image-rendering:optimizeQuality; fill-rule:evenodd; clip-rule:evenodd" xmlns:xlink="http://www.w3.org/1999/xlink">
<g><path style="opacity:0.341" fill="#3a791e" d="M 279.5,52.5 C 278.469,53.2485 277.302,53.9152 276,54.5C 269.585,53.9693 263.085,53.9693 256.5,54.5C 263.887,53.3658 271.387,52.3658 279,51.5C 279.399,51.7284 279.565,52.0618 279.5,52.5 Z"/></g>
<g><path style="opacity:0.945" fill="#3a7d18" d="M 296.5,52.5 C 307.373,55.7901 318.039,59.4568 328.5,63.5C 322.096,61.607 315.596,59.9404 309,58.5C 304.942,56.0527 300.776,54.0527 296.5,52.5 Z"/></g>
<g><path style="opacity:1" fill="#2e8704" d="M 296.5,52.5 C 300.776,54.0527 304.942,56.0527 309,58.5C 315.596,59.9404 322.096,61.607 328.5,63.5C 340.124,66.993 351.457,70.993 362.5,75.5C 362.611,76.1174 362.944,76.6174 363.5,77C 370.444,79.4824 377.444,81.6491 384.5,83.5C 387.443,83.9802 390.11,84.9802 392.5,86.5C 391.353,89.9275 389.02,92.2608 385.5,93.5C 383.971,93.4712 382.804,92.8045 382,91.5C 375.055,93.7315 368.221,93.2315 361.5,90C 360.695,88.0283 359.361,86.5283 357.5,85.5C 359.576,84.9003 361.576,84.567 363.5,84.5C 361.922,83.7022 360.256,83.2022 358.5,83C 359.888,82.1107 359.722,81.6107 358,81.5C 356.604,82.3943 355.104,83.0609 353.5,83.5C 351.348,81.9312 349.014,81.4312 346.5,82C 347.833,83.8402 347.666,84.3402 346,83.5C 345.612,84.428 344.945,85.0946 344,85.5C 340.691,83.7853 337.191,82.7853 333.5,82.5C 324.555,80.0135 315.888,77.0135 307.5,73.5C 305.383,71.937 303.05,70.6036 300.5,69.5C 299.444,66.7609 297.777,66.2609 295.5,68C 288.167,68.3333 280.833,68.6667 273.5,69C 267.383,70.1022 261.383,71.2689 255.5,72.5C 255.167,72.5 254.833,72.5 254.5,72.5C 245.944,72.2197 237.61,72.8863 229.5,74.5C 224.04,75.7373 218.373,76.404 212.5,76.5C 208.516,76.7188 204.682,76.7188 201,76.5C 197.723,78.5543 194.223,80.221 190.5,81.5C 189.23,82.2876 188.23,83.2876 187.5,84.5C 173.08,91.3076 158.747,98.3076 144.5,105.5C 144.167,105.5 143.833,105.5 143.5,105.5C 145.324,103.435 146.658,101.435 147.5,99.5C 147.154,98.3044 146.654,98.3044 146,99.5C 144.878,97.5795 144.044,95.5795 143.5,93.5C 146.247,93.8134 148.914,93.48 151.5,92.5C 150.335,91.4164 149.002,90.5831 147.5,90C 144.419,89.4733 141.419,88.64 138.5,87.5C 136.488,87.8396 134.488,88.1729 132.5,88.5C 152.13,79.4469 171.797,70.2802 191.5,61C 212.935,58.8246 234.601,56.6579 256.5,54.5C 263.085,53.9693 269.585,53.9693 276,54.5C 277.302,53.9152 278.469,53.2485 279.5,52.5C 285.297,51.2383 290.963,51.2383 296.5,52.5 Z"/></g>
<g><path style="opacity:0.882" fill="#3a7a1a" d="M 307.5,73.5 C 301.893,71.2434 296.059,69.9101 290,69.5C 278.503,70.6109 267.003,71.6109 255.5,72.5C 261.383,71.2689 267.383,70.1022 273.5,69C 280.833,68.6667 288.167,68.3333 295.5,68C 297.777,66.2609 299.444,66.7609 300.5,69.5C 303.05,70.6036 305.383,71.937 307.5,73.5 Z"/></g>
<g><path style="opacity:0.569" fill="#3b761d" d="M 254.5,72.5 C 246.377,73.9625 238.044,74.6291 229.5,74.5C 237.61,72.8863 245.944,72.2197 254.5,72.5 Z"/></g>
<g><path style="opacity:0.635" fill="#377315" d="M 362.5,75.5 C 370.126,77.5953 377.459,80.262 384.5,83.5C 377.444,81.6491 370.444,79.4824 363.5,77C 362.944,76.6174 362.611,76.1174 362.5,75.5 Z"/></g>
<g><path style="opacity:0.396" fill="#38741b" d="M 212.5,76.5 C 203.807,77.6604 195.473,80.327 187.5,84.5C 188.23,83.2876 189.23,82.2876 190.5,81.5C 194.223,80.221 197.723,78.5543 201,76.5C 204.682,76.7188 208.516,76.7188 212.5,76.5 Z"/></g>
<g><path style="opacity:1" fill="#2f8407" d="M 392.5,86.5 C 406.003,90.1691 419.17,94.8357 432,100.5C 434.066,105.363 435.732,110.363 437,115.5C 440.151,128.122 442.984,140.788 445.5,153.5C 444.022,149.715 442.855,145.715 442,141.5C 441,140.5 440,139.5 439,138.5C 438.333,141.167 437.667,141.167 437,138.5C 436.506,140.134 436.34,141.801 436.5,143.5C 435.5,143.5 434.5,143.5 433.5,143.5C 433.868,139.878 433.868,136.378 433.5,133C 434,132.5 434.5,132 435,131.5C 435.315,128.628 435.815,125.795 436.5,123C 435.094,118.423 434.094,113.756 433.5,109C 431.899,106.502 430.065,106.002 428,107.5C 427.564,104.953 426.064,103.62 423.5,103.5C 419.995,104.703 416.662,106.203 413.5,108C 416.121,108.939 418.788,109.772 421.5,110.5C 420.266,112.398 420.599,114.065 422.5,115.5C 421.947,117.727 421.947,120.061 422.5,122.5C 421.194,119.662 420.027,116.662 419,113.5C 390.456,103.043 361.956,92.71 333.5,82.5C 337.191,82.7853 340.691,83.7853 344,85.5C 344.945,85.0946 345.612,84.428 346,83.5C 347.666,84.3402 347.833,83.8402 346.5,82C 349.014,81.4312 351.348,81.9312 353.5,83.5C 355.104,83.0609 356.604,82.3943 358,81.5C 359.722,81.6107 359.888,82.1107 358.5,83C 360.256,83.2022 361.922,83.7022 363.5,84.5C 361.576,84.567 359.576,84.9003 357.5,85.5C 359.361,86.5283 360.695,88.0283 361.5,90C 368.221,93.2315 375.055,93.7315 382,91.5C 382.804,92.8045 383.971,93.4712 385.5,93.5C 389.02,92.2608 391.353,89.9275 392.5,86.5 Z"/></g>
<g><path style="opacity:1" fill="#2f810a" d="M 132.5,88.5 C 131.766,89.7079 131.433,91.0413 131.5,92.5C 130.448,92.3505 129.448,92.5172 128.5,93C 128.833,93.3333 129.167,93.6667 129.5,94C 128.377,95.0437 127.044,95.7104 125.5,96C 126.833,96.6667 126.833,97.3333 125.5,98C 126.167,98.3333 126.833,98.6667 127.5,99C 124.807,99.343 122.807,100.676 121.5,103C 123.7,105.593 126.367,106.26 129.5,105C 127.295,107.54 124.795,109.707 122,111.5C 122.079,106.883 120.246,105.716 116.5,108C 117.654,108.914 117.487,109.747 116,110.5C 114.75,109.427 113.416,109.427 112,110.5C 109.699,112.492 107.366,114.492 105,116.5C 102.009,119.942 100.009,123.609 99,127.5C 98.6924,126.692 98.1924,126.025 97.5,125.5C 96.1502,126.95 94.4835,127.617 92.5,127.5C 105.218,113.78 118.552,100.78 132.5,88.5 Z"/></g>
<g><path style="opacity:1" fill="#2d8802" d="M 143.5,105.5 C 140.26,107.639 138.26,110.639 137.5,114.5C 136.711,114.783 136.044,115.283 135.5,116C 145.494,116.5 155.494,116.666 165.5,116.5C 184.671,117.167 204.004,117.833 223.5,118.5C 226.297,119.105 228.63,120.438 230.5,122.5C 230.81,123.738 231.31,123.738 232,122.5C 235.833,116.667 239.667,110.833 243.5,105C 262.5,104.667 281.5,104.333 300.5,104C 303.874,103.479 306.874,102.146 309.5,100C 313.167,99.3333 316.833,99.3333 320.5,100C 321.942,100.377 322.942,101.21 323.5,102.5C 324.728,105.334 326.061,108.167 327.5,111C 326.736,113.069 326.236,115.236 326,117.5C 324.193,115.294 323.693,112.961 324.5,110.5C 323.5,109.167 322.5,109.167 321.5,110.5C 321.128,113.383 321.128,116.383 321.5,119.5C 322.5,119.5 323.5,119.5 324.5,119.5C 324.5,120.5 324.5,121.5 324.5,122.5C 321.997,123.726 319.331,124.726 316.5,125.5C 312.234,124.739 308.234,123.239 304.5,121C 292.833,120.333 281.167,120.333 269.5,121C 281.007,121.169 292.341,121.669 303.5,122.5C 286.154,122.167 268.821,122.5 251.5,123.5C 250.628,125.45 249.961,127.45 249.5,129.5C 247.938,133.392 245.605,136.725 242.5,139.5C 241.414,139.62 240.747,140.287 240.5,141.5C 241.552,143.223 241.552,144.89 240.5,146.5C 241.5,147.833 242.5,149.167 243.5,150.5C 242.675,151.386 241.675,151.719 240.5,151.5C 240.613,154.049 239.946,156.382 238.5,158.5C 240.366,158.098 242.366,158.098 244.5,158.5C 240.837,161.344 240.504,164.678 243.5,168.5C 242.311,169.429 240.978,169.762 239.5,169.5C 239.763,174.188 238.43,174.521 235.5,170.5C 237.358,168.476 239.025,166.309 240.5,164C 239.953,163.075 239.287,162.242 238.5,161.5C 236.028,164.115 234.362,167.115 233.5,170.5C 232.178,170.67 231.011,170.337 230,169.5C 230.148,168.175 229.982,167.008 229.5,166C 230.167,165.667 230.833,165.333 231.5,165C 226.755,162.434 223.755,158.601 222.5,153.5C 221.098,153.135 220.098,152.301 219.5,151C 220.33,149.535 220.496,148.035 220,146.5C 217.758,146.307 215.591,145.307 213.5,143.5C 212.167,141.5 210.833,139.5 209.5,137.5C 176.002,136.336 142.336,136.169 108.5,137C 107.354,137.645 106.354,138.478 105.5,139.5C 104.264,138.754 102.93,138.421 101.5,138.5C 101.48,140.143 102.147,141.476 103.5,142.5C 103.058,143.739 102.391,144.739 101.5,145.5C 100.504,145.586 99.6708,145.252 99,144.5C 98.3828,145.449 98.5494,146.282 99.5,147C 97.892,147.658 96.7253,147.158 96,145.5C 94.951,147.107 93.451,147.773 91.5,147.5C 90.9928,143.33 92.6595,140.33 96.5,138.5C 96.1924,137.692 95.6924,137.025 95,136.5C 92.2394,138.017 90.4061,137.184 89.5,134C 90.5,133.167 91.5,132.333 92.5,131.5C 91.6371,130.274 91.6371,128.94 92.5,127.5C 94.4835,127.617 96.1502,126.95 97.5,125.5C 98.1924,126.025 98.6924,126.692 99,127.5C 100.009,123.609 102.009,119.942 105,116.5C 107.366,114.492 109.699,112.492 112,110.5C 113.416,109.427 114.75,109.427 116,110.5C 117.487,109.747 117.654,108.914 116.5,108C 120.246,105.716 122.079,106.883 122,111.5C 124.795,109.707 127.295,107.54 129.5,105C 126.367,106.26 123.7,105.593 121.5,103C 122.807,100.676 124.807,99.343 127.5,99C 126.833,98.6667 126.167,98.3333 125.5,98C 126.833,97.3333 126.833,96.6667 125.5,96C 127.044,95.7104 128.377,95.0437 129.5,94C 129.167,93.6667 128.833,93.3333 128.5,93C 129.448,92.5172 130.448,92.3505 131.5,92.5C 131.433,91.0413 131.766,89.7079 132.5,88.5C 134.488,88.1729 136.488,87.8396 138.5,87.5C 141.419,88.64 144.419,89.4733 147.5,90C 149.002,90.5831 150.335,91.4164 151.5,92.5C 148.914,93.48 146.247,93.8134 143.5,93.5C 144.044,95.5795 144.878,97.5795 146,99.5C 146.654,98.3044 147.154,98.3044 147.5,99.5C 146.658,101.435 145.324,103.435 143.5,105.5 Z"/></g>
<g><path style="opacity:0.208" fill="#315d17" d="M 143.5,105.5 C 143.833,105.5 144.167,105.5 144.5,105.5C 142.204,107.401 140.371,109.734 139,112.5C 138.383,113.449 138.549,114.282 139.5,115C 138.563,115.692 137.897,115.525 137.5,114.5C 138.26,110.639 140.26,107.639 143.5,105.5 Z"/></g>
<g><path style="opacity:1" fill="#2e7f0a" d="M 323.5,102.5 C 329.62,107.193 331.12,113.193 328,120.5C 323.164,127.405 316.997,129.405 309.5,126.5C 308.366,123.966 306.366,122.633 303.5,122.5C 292.341,121.669 281.007,121.169 269.5,121C 281.167,120.333 292.833,120.333 304.5,121C 308.234,123.239 312.234,124.739 316.5,125.5C 319.331,124.726 321.997,123.726 324.5,122.5C 324.5,121.5 324.5,120.5 324.5,119.5C 323.5,119.5 322.5,119.5 321.5,119.5C 321.128,116.383 321.128,113.383 321.5,110.5C 322.5,109.167 323.5,109.167 324.5,110.5C 323.693,112.961 324.193,115.294 326,117.5C 326.236,115.236 326.736,113.069 327.5,111C 326.061,108.167 324.728,105.334 323.5,102.5 Z"/></g>
<g><path style="opacity:0.465" fill="#3e7721" d="M 165.5,116.5 C 185.503,116.333 205.503,116.5 225.5,117C 228.079,118.076 229.746,119.909 230.5,122.5C 228.63,120.438 226.297,119.105 223.5,118.5C 204.004,117.833 184.671,117.167 165.5,116.5 Z"/></g>
<g><path style="opacity:0.322" fill="#38751e" d="M 303.5,122.5 C 306.366,122.633 308.366,123.966 309.5,126.5C 307.745,125.928 306.078,125.094 304.5,124C 287.833,123.333 271.167,123.333 254.5,124C 253.167,126.191 251.5,128.024 249.5,129.5C 249.961,127.45 250.628,125.45 251.5,123.5C 268.821,122.5 286.154,122.167 303.5,122.5 Z"/></g>
<g><path style="opacity:0.241" fill="#3b791e" d="M 423.5,135.5 C 398.003,136.332 372.337,136.832 346.5,137C 344.081,138.509 343.081,140.675 343.5,143.5C 342.5,143.5 341.5,143.5 340.5,143.5C 341.353,140.406 343.02,137.906 345.5,136C 371.498,135.5 397.498,135.333 423.5,135.5 Z"/></g>
<g><path style="opacity:0.396" fill="#36781a" d="M 209.5,137.5 C 176.832,137.333 144.165,137.5 111.5,138C 107.305,141.03 103.639,144.53 100.5,148.5C 100.557,147.391 100.89,146.391 101.5,145.5C 102.391,144.739 103.058,143.739 103.5,142.5C 102.147,141.476 101.48,140.143 101.5,138.5C 102.93,138.421 104.264,138.754 105.5,139.5C 106.354,138.478 107.354,137.645 108.5,137C 142.336,136.169 176.002,136.336 209.5,137.5 Z"/></g>
<g><path style="opacity:1" fill="#2d8802" d="M 445.5,153.5 C 449.769,169.177 454.436,185.177 459.5,201.5C 459.137,202.183 458.804,202.85 458.5,203.5C 460.213,208.423 459.213,212.757 455.5,216.5C 453.776,213.947 452.276,211.28 451,208.5C 448.926,211.137 449.093,213.637 451.5,216C 449.431,216.324 449.098,217.158 450.5,218.5C 450.192,219.308 449.692,219.975 449,220.5C 448.084,217.476 446.584,214.809 444.5,212.5C 444.59,210.575 445.59,209.408 447.5,209C 445.356,205.755 443.356,205.922 441.5,209.5C 440.614,208.675 440.281,207.675 440.5,206.5C 421.497,206.333 402.497,206.5 383.5,207C 381.937,207.759 380.937,208.926 380.5,210.5C 377.859,211.263 375.192,211.43 372.5,211C 369.228,209.83 366.228,208.33 363.5,206.5C 363.283,203.565 362.617,200.731 361.5,198C 362.077,195.863 362.41,193.696 362.5,191.5C 368.792,186.231 375.792,185.565 383.5,189.5C 400.342,189.83 417.008,189.497 433.5,188.5C 432.711,183.509 431.378,178.676 429.5,174C 430.056,173.617 430.389,173.117 430.5,172.5C 430.011,167.87 429.011,163.37 427.5,159C 401.997,158.17 376.663,158.337 351.5,159.5C 347.667,167.171 343.334,174.504 338.5,181.5C 336.586,182.185 334.586,182.685 332.5,183C 301.833,183.667 271.167,183.667 240.5,183C 236.81,182.31 235.643,180.143 237,176.5C 237.333,176.833 237.667,177.167 238,177.5C 240.345,174.823 243.012,172.49 246,170.5C 247.892,171.617 248.725,173.284 248.5,175.5C 249.833,175.5 251.167,175.5 252.5,175.5C 252.36,173.876 253.027,172.71 254.5,172C 275.845,172.956 297.178,172.622 318.5,171C 318.833,170.667 319.167,170.333 319.5,170C 297.673,170.142 276.006,169.308 254.5,167.5C 252.5,168.5 250.5,169.5 248.5,170.5C 248.413,167.377 248.246,164.044 248,160.5C 250.333,162.5 252.667,164.5 255,166.5C 256.309,164.109 257.309,164.109 258,166.5C 258.333,165.833 258.667,165.167 259,164.5C 259.419,168.852 260.086,169.185 261,165.5C 261.807,169.449 262.307,169.449 262.5,165.5C 278.529,166.246 294.529,166.246 310.5,165.5C 314.219,165.888 317.886,166.555 321.5,167.5C 324.098,166.851 326.598,166.851 329,167.5C 329.945,167.095 330.612,166.428 331,165.5C 331.741,166.641 332.575,166.641 333.5,165.5C 334.5,166.167 335.5,166.833 336.5,167.5C 337.727,164.269 339.394,161.269 341.5,158.5C 336.691,156.002 336.691,153.169 341.5,150C 340.577,147.959 340.244,145.792 340.5,143.5C 341.5,143.5 342.5,143.5 343.5,143.5C 343.081,140.675 344.081,138.509 346.5,137C 372.337,136.832 398.003,136.332 423.5,135.5C 424.376,135.631 425.043,135.298 425.5,134.5C 423.991,130.622 422.991,126.622 422.5,122.5C 421.947,120.061 421.947,117.727 422.5,115.5C 420.599,114.065 420.266,112.398 421.5,110.5C 418.788,109.772 416.121,108.939 413.5,108C 416.662,106.203 419.995,104.703 423.5,103.5C 426.064,103.62 427.564,104.953 428,107.5C 430.065,106.002 431.899,106.502 433.5,109C 434.094,113.756 435.094,118.423 436.5,123C 435.815,125.795 435.315,128.628 435,131.5C 434.5,132 434,132.5 433.5,133C 433.868,136.378 433.868,139.878 433.5,143.5C 434.5,143.5 435.5,143.5 436.5,143.5C 436.34,141.801 436.506,140.134 437,138.5C 437.667,141.167 438.333,141.167 439,138.5C 440,139.5 441,140.5 442,141.5C 442.855,145.715 444.022,149.715 445.5,153.5 Z"/></g>
<g><path style="opacity:1" fill="#2d8802" d="M 92.5,127.5 C 91.6371,128.94 91.6371,130.274 92.5,131.5C 91.5,132.333 90.5,133.167 89.5,134C 90.4061,137.184 92.2394,138.017 95,136.5C 95.6924,137.025 96.1924,137.692 96.5,138.5C 92.6595,140.33 90.9928,143.33 91.5,147.5C 93.451,147.773 94.951,147.107 96,145.5C 96.7253,147.158 97.892,147.658 99.5,147C 98.5494,146.282 98.3828,145.449 99,144.5C 99.6708,145.252 100.504,145.586 101.5,145.5C 100.89,146.391 100.557,147.391 100.5,148.5C 97.3194,152.502 95.3194,157.002 94.5,162C 95.056,162.383 95.3893,162.883 95.5,163.5C 128.998,164.332 162.664,164.832 196.5,165C 197.053,166.878 198.053,168.378 199.5,169.5C 198.405,172.735 196.072,174.568 192.5,175C 194.394,176.101 195.061,177.434 194.5,179C 193.572,179.388 192.905,180.055 192.5,181C 194.178,184.274 193.678,187.107 191,189.5C 189.887,188.24 189.72,187.073 190.5,186C 188.668,185.252 187.001,184.252 185.5,183C 154.167,182.333 122.833,182.333 91.5,183C 88.7997,183.967 86.9664,185.801 86,188.5C 85.4254,192.376 85.9254,196.042 87.5,199.5C 85.857,199.52 84.5237,198.853 83.5,197.5C 81.9137,199.173 81.2471,201.173 81.5,203.5C 82.8333,203.5 84.1667,203.5 85.5,203.5C 85.8333,199.5 86.1667,199.5 86.5,203.5C 87.552,203.351 88.552,203.517 89.5,204C 91.6201,206.409 93.6201,208.909 95.5,211.5C 96.325,212.386 97.325,212.719 98.5,212.5C 98.774,214.981 100.107,216.647 102.5,217.5C 103.573,221.114 105.24,224.447 107.5,227.5C 107.291,228.086 106.957,228.586 106.5,229C 108.555,229.687 110.221,230.854 111.5,232.5C 111,232.833 110.5,233.167 110,233.5C 107.413,231.685 104.746,231.018 102,231.5C 100.423,234.539 97.9229,235.872 94.5,235.5C 92.6212,231.57 90.2878,228.57 87.5,226.5C 86.9511,222.071 84.2845,218.904 79.5,217C 77.9735,212.45 75.1402,208.95 71,206.5C 69.3765,201.226 69.2098,195.892 70.5,190.5C 73.0637,172.881 76.2304,155.881 80,139.5C 84.3373,135.599 88.504,131.599 92.5,127.5 Z"/></g>
<g><path style="opacity:0.043" fill="#307117" d="M 351.5,159.5 C 376.663,158.337 401.997,158.17 427.5,159C 429.011,163.37 430.011,167.87 430.5,172.5C 428.892,168.507 427.559,164.341 426.5,160C 401.502,159.5 376.502,159.333 351.5,159.5 Z"/></g>
<g><path style="opacity:1" fill="#2f8408" d="M 242.5,139.5 C 242.854,141.541 242.854,143.374 242.5,145C 245.932,150.544 249.599,155.878 253.5,161C 278.833,161.667 304.167,161.667 329.5,161C 333.456,155.239 337.123,149.406 340.5,143.5C 340.244,145.792 340.577,147.959 341.5,150C 336.691,153.169 336.691,156.002 341.5,158.5C 339.394,161.269 337.727,164.269 336.5,167.5C 335.5,166.833 334.5,166.167 333.5,165.5C 332.575,166.641 331.741,166.641 331,165.5C 330.612,166.428 329.945,167.095 329,167.5C 326.598,166.851 324.098,166.851 321.5,167.5C 317.886,166.555 314.219,165.888 310.5,165.5C 294.529,166.246 278.529,166.246 262.5,165.5C 262.307,169.449 261.807,169.449 261,165.5C 260.086,169.185 259.419,168.852 259,164.5C 258.667,165.167 258.333,165.833 258,166.5C 257.309,164.109 256.309,164.109 255,166.5C 252.667,164.5 250.333,162.5 248,160.5C 248.246,164.044 248.413,167.377 248.5,170.5C 250.5,169.5 252.5,168.5 254.5,167.5C 276.006,169.308 297.673,170.142 319.5,170C 319.167,170.333 318.833,170.667 318.5,171C 297.178,172.622 275.845,172.956 254.5,172C 253.027,172.71 252.36,173.876 252.5,175.5C 251.167,175.5 249.833,175.5 248.5,175.5C 248.725,173.284 247.892,171.617 246,170.5C 243.012,172.49 240.345,174.823 238,177.5C 237.667,177.167 237.333,176.833 237,176.5C 235.643,180.143 236.81,182.31 240.5,183C 271.167,183.667 301.833,183.667 332.5,183C 334.586,182.685 336.586,182.185 338.5,181.5C 338.586,182.496 338.252,183.329 337.5,184C 304.167,184.667 270.833,184.667 237.5,184C 229.125,170.755 221.125,157.255 213.5,143.5C 215.591,145.307 217.758,146.307 220,146.5C 220.496,148.035 220.33,149.535 219.5,151C 220.098,152.301 221.098,153.135 222.5,153.5C 223.755,158.601 226.755,162.434 231.5,165C 230.833,165.333 230.167,165.667 229.5,166C 229.982,167.008 230.148,168.175 230,169.5C 231.011,170.337 232.178,170.67 233.5,170.5C 234.362,167.115 236.028,164.115 238.5,161.5C 239.287,162.242 239.953,163.075 240.5,164C 239.025,166.309 237.358,168.476 235.5,170.5C 238.43,174.521 239.763,174.188 239.5,169.5C 240.978,169.762 242.311,169.429 243.5,168.5C 240.504,164.678 240.837,161.344 244.5,158.5C 242.366,158.098 240.366,158.098 238.5,158.5C 239.946,156.382 240.613,154.049 240.5,151.5C 241.675,151.719 242.675,151.386 243.5,150.5C 242.5,149.167 241.5,147.833 240.5,146.5C 241.552,144.89 241.552,143.223 240.5,141.5C 240.747,140.287 241.414,139.62 242.5,139.5 Z"/></g>
<g><path style="opacity:0.369" fill="#3b7c1d" d="M 95.5,163.5 C 129.502,163.333 163.502,163.5 197.5,164C 199.16,165.488 200.16,167.321 200.5,169.5C 200.167,169.5 199.833,169.5 199.5,169.5C 198.053,168.378 197.053,166.878 196.5,165C 162.664,164.832 128.998,164.332 95.5,163.5 Z"/></g>
<g><path style="opacity:1" fill="#377b15" d="M 383.5,187.5 C 383.5,188.167 383.5,188.833 383.5,189.5C 375.792,185.565 368.792,186.231 362.5,191.5C 363.658,188.178 365.992,186.012 369.5,185C 374.556,183.911 379.222,184.744 383.5,187.5 Z"/></g>
<g><path style="opacity:0.196" fill="#387021" d="M 383.5,187.5 C 400.089,188.485 416.756,188.818 433.5,188.5C 417.008,189.497 400.342,189.83 383.5,189.5C 383.5,188.833 383.5,188.167 383.5,187.5 Z"/></g>
<g><path style="opacity:1" fill="#2f8706" d="M 199.5,169.5 C 199.833,169.5 200.167,169.5 200.5,169.5C 208.826,181.472 216.16,194.139 222.5,207.5C 222.414,208.496 222.748,209.329 223.5,210C 256.167,210.333 288.833,210.667 321.5,211C 322.737,211.232 323.737,211.732 324.5,212.5C 295.855,212.838 267.188,213.004 238.5,213C 239.416,213.374 240.25,213.874 241,214.5C 246.246,214.609 251.912,214.276 258,213.5C 259.5,213.667 261,213.833 262.5,214C 261.833,214.333 261.167,214.667 260.5,215C 250.648,215.239 241.148,215.739 232,216.5C 230,215.833 228,215.167 226,214.5C 225.308,215.025 224.808,215.692 224.5,216.5C 226.167,217.167 227.833,217.833 229.5,218.5C 227.376,219.149 225.376,219.983 223.5,221C 226.758,221.212 229.924,221.712 233,222.5C 261.824,221.194 290.991,221.194 320.5,222.5C 319.94,224.854 319.273,227.187 318.5,229.5C 315.953,228.066 313.619,226.4 311.5,224.5C 301.099,227.059 290.432,228.059 279.5,227.5C 271.5,227.167 263.5,226.833 255.5,226.5C 319.49,224.667 319.49,223.834 255.5,224C 253.718,224.814 252.218,225.981 251,227.5C 249.088,226.308 247.088,225.308 245,224.5C 242.421,227.54 240.588,231.04 239.5,235C 240,235.167 240.5,235.333 241,235.5C 242.75,233.39 244.917,231.723 247.5,230.5C 253.052,229.812 258.552,229.146 264,228.5C 278.035,229.761 292.702,229.761 308,228.5C 310.167,228.667 312.333,228.833 314.5,229C 315.252,229.671 315.586,230.504 315.5,231.5C 313.324,229.969 310.824,229.303 308,229.5C 288.511,230.264 269.011,230.764 249.5,231C 248.262,231.69 248.262,232.19 249.5,232.5C 251.776,244.64 258.776,249.14 270.5,246C 272.577,244.295 274.91,243.128 277.5,242.5C 282.797,243.367 287.631,245.367 292,248.5C 295.696,254.59 295.196,260.257 290.5,265.5C 287.145,266.307 284.311,267.973 282,270.5C 279.194,268.398 276.027,267.398 272.5,267.5C 272.167,267.5 271.833,267.5 271.5,267.5C 270.848,266.275 269.681,265.608 268,265.5C 261.184,264.805 254.35,264.305 247.5,264C 245.338,262.355 244.005,260.188 243.5,257.5C 242.423,256.295 241.09,255.628 239.5,255.5C 238.542,255.047 237.708,254.381 237,253.5C 233.375,245.744 228.875,238.577 223.5,232C 219.833,231.667 216.167,231.333 212.5,231C 203.133,215.947 194.133,200.613 185.5,185C 154.167,184.333 122.833,184.333 91.5,185C 89.8896,189.717 89.0562,194.55 89,199.5C 94.2481,205.023 98.7481,211.023 102.5,217.5C 100.107,216.647 98.774,214.981 98.5,212.5C 97.325,212.719 96.325,212.386 95.5,211.5C 93.6201,208.909 91.6201,206.409 89.5,204C 88.552,203.517 87.552,203.351 86.5,203.5C 86.1667,199.5 85.8333,199.5 85.5,203.5C 84.1667,203.5 82.8333,203.5 81.5,203.5C 81.2471,201.173 81.9137,199.173 83.5,197.5C 84.5237,198.853 85.857,199.52 87.5,199.5C 85.9254,196.042 85.4254,192.376 86,188.5C 86.9664,185.801 88.7997,183.967 91.5,183C 122.833,182.333 154.167,182.333 185.5,183C 187.001,184.252 188.668,185.252 190.5,186C 189.72,187.073 189.887,188.24 191,189.5C 193.678,187.107 194.178,184.274 192.5,181C 192.905,180.055 193.572,179.388 194.5,179C 195.061,177.434 194.394,176.101 192.5,175C 196.072,174.568 198.405,172.735 199.5,169.5 Z"/></g>
<g><path style="opacity:1" fill="#347617" d="M 362.5,191.5 C 362.41,193.696 362.077,195.863 361.5,198C 362.617,200.731 363.283,203.565 363.5,206.5C 366.228,208.33 369.228,209.83 372.5,211C 375.192,211.43 377.859,211.263 380.5,210.5C 369.109,214.63 362.109,210.63 359.5,198.5C 359.939,195.824 360.939,193.491 362.5,191.5 Z"/></g>
<g><path style="opacity:1" fill="#2d7d0d" d="M 458.5,203.5 C 459.103,205.19 460.103,206.69 461.5,208C 460.726,210.405 460.226,212.905 460,215.5C 451.936,227.904 444.269,240.57 437,253.5C 436.292,254.381 435.458,255.047 434.5,255.5C 435.955,251.466 437.622,247.466 439.5,243.5C 443.165,241.979 444.165,239.479 442.5,236C 447.128,233.873 450.128,230.373 451.5,225.5C 450.637,223.128 449.471,223.128 448,225.5C 445.577,222.751 443.577,219.751 442,216.5C 442.046,218.313 441.88,219.979 441.5,221.5C 440.167,221.167 438.833,220.833 437.5,220.5C 439.059,218.531 440.726,216.698 442.5,215C 441.407,213.635 440.074,213.301 438.5,214C 437.61,216.391 435.943,217.891 433.5,218.5C 434.709,215.279 436.376,212.279 438.5,209.5C 420.176,208.334 401.842,208.167 383.5,209C 382.756,210.039 381.756,210.539 380.5,210.5C 380.937,208.926 381.937,207.759 383.5,207C 402.497,206.5 421.497,206.333 440.5,206.5C 440.281,207.675 440.614,208.675 441.5,209.5C 443.356,205.922 445.356,205.755 447.5,209C 445.59,209.408 444.59,210.575 444.5,212.5C 446.584,214.809 448.084,217.476 449,220.5C 449.692,219.975 450.192,219.308 450.5,218.5C 449.098,217.158 449.431,216.324 451.5,216C 449.093,213.637 448.926,211.137 451,208.5C 452.276,211.28 453.776,213.947 455.5,216.5C 459.213,212.757 460.213,208.423 458.5,203.5 Z"/></g>
<g><path style="opacity:0.138" fill="#387521" d="M 222.5,207.5 C 223.289,207.783 223.956,208.283 224.5,209C 257.833,209.333 291.167,209.667 324.5,210C 326.464,211.451 327.797,213.284 328.5,215.5C 326.859,214.853 325.526,213.853 324.5,212.5C 323.737,211.732 322.737,211.232 321.5,211C 288.833,210.667 256.167,210.333 223.5,210C 222.748,209.329 222.414,208.496 222.5,207.5 Z"/></g>
<g><path style="opacity:1" fill="#357814" d="M 167.5,232.5 C 167.91,230.146 168.91,228.146 170.5,226.5C 171.331,222.846 171.665,219.346 171.5,216C 170.019,215.02 168.685,213.853 167.5,212.5C 165.963,211.802 164.63,211.469 163.5,211.5C 163.5,210.5 163.5,209.5 163.5,208.5C 160.167,208.5 156.833,208.5 153.5,208.5C 160.955,205.586 167.121,207.586 172,214.5C 174.428,220.562 173.761,226.228 170,231.5C 169.329,232.252 168.496,232.586 167.5,232.5 Z"/></g>
<g><path style="opacity:1" fill="#2f8507" d="M 153.5,208.5 C 156.833,208.5 160.167,208.5 163.5,208.5C 163.5,209.5 163.5,210.5 163.5,211.5C 162.71,212.609 162.21,213.942 162,215.5C 159.888,213.078 157.888,213.078 156,215.5C 155.577,214.044 154.744,213.544 153.5,214C 153.833,214.333 154.167,214.667 154.5,215C 151.027,215.807 148.86,217.973 148,221.5C 147.333,220.167 146.667,220.167 146,221.5C 145.517,222.448 145.351,223.448 145.5,224.5C 141.828,224.183 140.162,225.849 140.5,229.5C 143.443,229.353 146.276,228.687 149,227.5C 151.507,227.716 152.34,228.716 151.5,230.5C 156.32,234.998 161.653,235.664 167.5,232.5C 165.492,234.927 162.826,235.927 159.5,235.5C 157.833,235.333 156.167,235.167 154.5,235C 151.995,233.247 149.329,231.747 146.5,230.5C 144.833,231.167 143.167,231.833 141.5,232.5C 139.719,235.091 137.719,237.425 135.5,239.5C 135.5,237.833 135.5,236.167 135.5,234.5C 139.541,234.426 140.208,233.093 137.5,230.5C 136.719,231.737 135.719,232.737 134.5,233.5C 133.534,231.604 133.201,229.604 133.5,227.5C 130.671,227.675 129.004,226.342 128.5,223.5C 126.729,224.035 126.396,224.869 127.5,226C 124.302,226.848 121.469,228.348 119,230.5C 118.51,231.793 118.343,233.127 118.5,234.5C 112.768,233.06 109.268,235.06 108,240.5C 106.777,238.015 105.277,237.848 103.5,240C 104.654,240.914 104.487,241.747 103,242.5C 102.195,240.099 101.362,240.266 100.5,243C 102.494,245.158 103.828,247.658 104.5,250.5C 102.453,248.45 100.786,246.117 99.5,243.5C 98.2955,240.527 96.6289,237.861 94.5,235.5C 97.9229,235.872 100.423,234.539 102,231.5C 104.746,231.018 107.413,231.685 110,233.5C 110.5,233.167 111,232.833 111.5,232.5C 110.221,230.854 108.555,229.687 106.5,229C 106.957,228.586 107.291,228.086 107.5,227.5C 105.24,224.447 103.573,221.114 102.5,217.5C 106.888,222.583 111.055,227.916 115,233.5C 120.045,226.577 125.212,219.744 130.5,213C 136.725,211.749 143.058,211.083 149.5,211C 150.471,209.519 151.804,208.685 153.5,208.5 Z"/></g>
<g><path style="opacity:1" fill="#2c8902" d="M 163.5,211.5 C 164.63,211.469 165.963,211.802 167.5,212.5C 168.685,213.853 170.019,215.02 171.5,216C 171.665,219.346 171.331,222.846 170.5,226.5C 168.91,228.146 167.91,230.146 167.5,232.5C 161.653,235.664 156.32,234.998 151.5,230.5C 152.34,228.716 151.507,227.716 149,227.5C 146.276,228.687 143.443,229.353 140.5,229.5C 140.162,225.849 141.828,224.183 145.5,224.5C 145.351,223.448 145.517,222.448 146,221.5C 146.667,220.167 147.333,220.167 148,221.5C 148.86,217.973 151.027,215.807 154.5,215C 154.167,214.667 153.833,214.333 153.5,214C 154.744,213.544 155.577,214.044 156,215.5C 157.888,213.078 159.888,213.078 162,215.5C 162.21,213.942 162.71,212.609 163.5,211.5 Z"/></g>
<g><path style="opacity:1" fill="#2e780f" d="M 70.5,190.5 C 69.2098,195.892 69.3765,201.226 71,206.5C 75.1402,208.95 77.9735,212.45 79.5,217C 84.2845,218.904 86.9511,222.071 87.5,226.5C 90.2878,228.57 92.6212,231.57 94.5,235.5C 96.6289,237.861 98.2955,240.527 99.5,243.5C 88.8744,231.605 78.7077,219.272 69,206.5C 68.1251,205.127 67.6251,203.627 67.5,202C 68.2946,197.983 69.2946,194.149 70.5,190.5 Z"/></g>
<g><path style="opacity:1" fill="#2c8801" d="M 135.5,239.5 C 135.5,239.833 135.5,240.167 135.5,240.5C 133.278,240.178 131.444,240.845 130,242.5C 129.564,244.847 129.064,247.181 128.5,249.5C 129.406,251.747 130.739,253.747 132.5,255.5C 155.493,256.333 178.493,256.833 201.5,257C 203.217,258.559 205.217,259.392 207.5,259.5C 207.351,260.552 207.517,261.552 208,262.5C 210.824,263.844 212.991,265.844 214.5,268.5C 213.448,268.351 212.448,268.517 211.5,269C 210.325,271.683 208.658,274.017 206.5,276C 208.221,277.527 210.221,278.527 212.5,279C 213.893,280.171 214.727,281.671 215,283.5C 215.333,283.167 215.667,282.833 216,282.5C 216.798,284.259 216.631,285.926 215.5,287.5C 213.96,285.613 212.293,283.78 210.5,282C 208.527,281.505 206.527,281.338 204.5,281.5C 200.791,275.229 195.291,272.229 188,272.5C 172.581,272.329 156.414,272.663 139.5,273.5C 134.5,273.333 129.5,273.167 124.5,273C 123.756,271.961 122.756,271.461 121.5,271.5C 115.484,264.814 109.818,257.814 104.5,250.5C 103.828,247.658 102.494,245.158 100.5,243C 101.362,240.266 102.195,240.099 103,242.5C 104.487,241.747 104.654,240.914 103.5,240C 105.277,237.848 106.777,238.015 108,240.5C 109.268,235.06 112.768,233.06 118.5,234.5C 118.343,233.127 118.51,231.793 119,230.5C 121.469,228.348 124.302,226.848 127.5,226C 126.396,224.869 126.729,224.035 128.5,223.5C 129.004,226.342 130.671,227.675 133.5,227.5C 133.201,229.604 133.534,231.604 134.5,233.5C 135.719,232.737 136.719,231.737 137.5,230.5C 140.208,233.093 139.541,234.426 135.5,234.5C 135.5,236.167 135.5,237.833 135.5,239.5 Z"/></g>
<g><path style="opacity:0.708" fill="#327413" d="M 315.5,231.5 C 318.032,234.236 319.365,237.57 319.5,241.5C 317.399,238.821 315.399,235.988 313.5,233C 292.169,232.5 270.836,232.333 249.5,232.5C 248.262,232.19 248.262,231.69 249.5,231C 269.011,230.764 288.511,230.264 308,229.5C 310.824,229.303 313.324,229.969 315.5,231.5 Z"/></g>
<g><path style="opacity:1" fill="#2d8903" d="M 324.5,212.5 C 325.526,213.853 326.859,214.853 328.5,215.5C 331.819,220.797 335.153,226.131 338.5,231.5C 367.662,232.498 396.995,232.831 426.5,232.5C 426.5,231.5 426.5,230.5 426.5,229.5C 428.446,225.561 430.779,221.894 433.5,218.5C 435.943,217.891 437.61,216.391 438.5,214C 440.074,213.301 441.407,213.635 442.5,215C 440.726,216.698 439.059,218.531 437.5,220.5C 438.833,220.833 440.167,221.167 441.5,221.5C 441.88,219.979 442.046,218.313 442,216.5C 443.577,219.751 445.577,222.751 448,225.5C 449.471,223.128 450.637,223.128 451.5,225.5C 450.128,230.373 447.128,233.873 442.5,236C 444.165,239.479 443.165,241.979 439.5,243.5C 437.622,247.466 435.955,251.466 434.5,255.5C 431.484,258.778 428.817,262.445 426.5,266.5C 424.593,264.24 422.593,264.073 420.5,266C 421.563,267.188 422.897,267.688 424.5,267.5C 424.649,268.552 424.483,269.552 424,270.5C 420.62,272.717 417.787,275.384 415.5,278.5C 412.197,279.151 409.53,280.818 407.5,283.5C 403.966,284.37 401.299,286.37 399.5,289.5C 392.987,294.921 385.987,299.588 378.5,303.5C 374.949,302.13 373.282,303.464 373.5,307.5C 371.833,307.5 370.167,307.5 368.5,307.5C 368.371,309.216 368.038,310.883 367.5,312.5C 367.167,312.5 366.833,312.5 366.5,312.5C 363.286,314.514 359.786,315.847 356,316.5C 355.686,319.865 355.519,323.031 355.5,326C 358,328.131 359.667,330.298 360.5,332.5C 356.995,338.851 353.995,345.518 351.5,352.5C 350.269,351.349 350.269,350.183 351.5,349C 350.437,347.812 349.103,347.312 347.5,347.5C 347.398,344.254 346.398,341.42 344.5,339C 344.594,336.046 345.094,335.879 346,338.5C 347.205,337.929 348.372,337.262 349.5,336.5C 348.151,333.676 348.484,331.009 350.5,328.5C 350.246,324.293 348.579,320.793 345.5,318C 343.527,317.505 341.527,317.338 339.5,317.5C 339.5,316.5 339.5,315.5 339.5,314.5C 342.757,314.826 344.257,313.493 344,310.5C 341.679,311.361 340.513,310.361 340.5,307.5C 342.766,307.141 344.599,307.808 346,309.5C 347.146,305.636 349.313,301.969 352.5,298.5C 355.97,296.759 359.47,295.092 363,293.5C 363.333,293.833 363.667,294.167 364,294.5C 365.058,290.046 367.891,287.546 372.5,287C 380.261,280.891 388.261,275.225 396.5,270C 397.386,268.385 398.386,266.885 399.5,265.5C 404.233,262.276 408.567,258.442 412.5,254C 412.272,253.601 411.938,253.435 411.5,253.5C 384.003,252.668 356.336,252.168 328.5,252C 325.311,250.111 323.811,247.278 324,243.5C 322.989,242.663 321.822,242.33 320.5,242.5C 319.833,242.5 319.5,242.167 319.5,241.5C 319.365,237.57 318.032,234.236 315.5,231.5C 315.586,230.504 315.252,229.671 314.5,229C 312.333,228.833 310.167,228.667 308,228.5C 292.702,229.761 278.035,229.761 264,228.5C 258.552,229.146 253.052,229.812 247.5,230.5C 244.917,231.723 242.75,233.39 241,235.5C 240.5,235.333 240,235.167 239.5,235C 240.588,231.04 242.421,227.54 245,224.5C 247.088,225.308 249.088,226.308 251,227.5C 252.218,225.981 253.718,224.814 255.5,224C 319.49,223.834 319.49,224.667 255.5,226.5C 263.5,226.833 271.5,227.167 279.5,227.5C 290.432,228.059 301.099,227.059 311.5,224.5C 313.619,226.4 315.953,228.066 318.5,229.5C 319.273,227.187 319.94,224.854 320.5,222.5C 290.991,221.194 261.824,221.194 233,222.5C 229.924,221.712 226.758,221.212 223.5,221C 225.376,219.983 227.376,219.149 229.5,218.5C 227.833,217.833 226.167,217.167 224.5,216.5C 224.808,215.692 225.308,215.025 226,214.5C 228,215.167 230,215.833 232,216.5C 241.148,215.739 250.648,215.239 260.5,215C 261.167,214.667 261.833,214.333 262.5,214C 261,213.833 259.5,213.667 258,213.5C 251.912,214.276 246.246,214.609 241,214.5C 240.25,213.874 239.416,213.374 238.5,213C 267.188,213.004 295.855,212.838 324.5,212.5 Z"/></g>
<g><path style="opacity:0.306" fill="#3d7b23" d="M 426.5,229.5 C 426.5,230.5 426.5,231.5 426.5,232.5C 396.995,232.831 367.662,232.498 338.5,231.5C 367.169,231.667 395.835,231.5 424.5,231C 425.044,230.283 425.711,229.783 426.5,229.5 Z"/></g>
<g><path style="opacity:1" fill="#327512" d="M 277.5,242.5 C 284.935,241.126 290.769,243.793 295,250.5C 297.53,261.776 293.197,268.776 282,271.5C 278.378,271.022 275.212,269.689 272.5,267.5C 276.027,267.398 279.194,268.398 282,270.5C 284.311,267.973 287.145,266.307 290.5,265.5C 295.196,260.257 295.696,254.59 292,248.5C 287.631,245.367 282.797,243.367 277.5,242.5 Z"/></g>
<g><path style="opacity:0.21" fill="#35731e" d="M 320.5,242.5 C 321.822,242.33 322.989,242.663 324,243.5C 323.811,247.278 325.311,250.111 328.5,252C 356.336,252.168 384.003,252.668 411.5,253.5C 383.165,253.667 354.831,253.5 326.5,253C 323.591,250.015 321.591,246.515 320.5,242.5 Z"/></g>
<g><path style="opacity:0.996" fill="#337b14" d="M 135.5,240.5 C 133.526,243.482 131.526,246.482 129.5,249.5C 130.648,251.149 131.981,252.649 133.5,254C 156.5,254.333 179.5,254.667 202.5,255C 211.28,260.949 219.28,267.782 226.5,275.5C 221.825,276.661 219.159,274.994 218.5,270.5C 216.517,270.843 215.183,270.176 214.5,268.5C 212.991,265.844 210.824,263.844 208,262.5C 207.517,261.552 207.351,260.552 207.5,259.5C 205.217,259.392 203.217,258.559 201.5,257C 178.493,256.833 155.493,256.333 132.5,255.5C 130.739,253.747 129.406,251.747 128.5,249.5C 129.064,247.181 129.564,244.847 130,242.5C 131.444,240.845 133.278,240.178 135.5,240.5 Z"/></g>
<g><path style="opacity:1" fill="#327814" d="M 239.5,255.5 C 241.09,255.628 242.423,256.295 243.5,257.5C 244.005,260.188 245.338,262.355 247.5,264C 254.35,264.305 261.184,264.805 268,265.5C 269.681,265.608 270.848,266.275 271.5,267.5C 262.525,266.784 253.525,266.284 244.5,266C 242.421,262.676 240.754,259.176 239.5,255.5 Z"/></g>
<g><path style="opacity:1" fill="#2b770d" d="M 434.5,255.5 C 430.747,265.362 424.414,273.029 415.5,278.5C 417.787,275.384 420.62,272.717 424,270.5C 424.483,269.552 424.649,268.552 424.5,267.5C 422.897,267.688 421.563,267.188 420.5,266C 422.593,264.073 424.593,264.24 426.5,266.5C 428.817,262.445 431.484,258.778 434.5,255.5 Z"/></g>
<g><path style="opacity:1" fill="#2d8605" d="M 214.5,268.5 C 215.183,270.176 216.517,270.843 218.5,270.5C 219.159,274.994 221.825,276.661 226.5,275.5C 239.138,285.635 251.638,295.968 264,306.5C 275.332,298.659 286.498,290.659 297.5,282.5C 298.5,282.5 299.5,282.5 300.5,282.5C 300.5,293.167 300.5,303.833 300.5,314.5C 299.506,304.347 299.172,294.014 299.5,283.5C 298.5,283.5 297.5,283.5 296.5,283.5C 296.5,284.5 296.5,285.5 296.5,286.5C 295.127,286.343 293.793,286.51 292.5,287C 292.957,287.414 293.291,287.914 293.5,288.5C 291.851,289.648 290.351,290.981 289,292.5C 289.679,301.488 289.513,310.488 288.5,319.5C 287.514,323.375 286.347,323.375 285,319.5C 283.589,321.65 282.755,323.984 282.5,326.5C 284.911,326.863 286.411,325.863 287,323.5C 287.711,325.367 287.211,326.867 285.5,328C 286.333,328.833 287.167,329.667 288,330.5C 289.84,329.167 290.34,329.334 289.5,331C 290.5,331.333 291.5,331.667 292.5,332C 291.346,332.914 291.513,333.747 293,334.5C 294.388,333.446 295.888,333.28 297.5,334C 298.667,335.833 300.167,337.333 302,338.5C 302.617,339.449 302.451,340.282 301.5,341C 302.939,341.991 303.939,343.324 304.5,345C 306.618,345.635 308.618,346.469 310.5,347.5C 315.104,345.762 316.104,346.762 313.5,350.5C 315.193,352.027 317.027,353.36 319,354.5C 319.483,355.448 319.649,356.448 319.5,357.5C 308.062,349.241 296.729,340.741 285.5,332C 281.995,328.681 280.495,324.514 281,319.5C 275.57,323.945 269.904,327.945 264,331.5C 261.968,331.142 260.134,330.308 258.5,329C 254.901,326.048 251.567,322.882 248.5,319.5C 245.834,316.001 242.667,313.001 239,310.5C 238.517,309.552 238.351,308.552 238.5,307.5C 239.552,307.649 240.552,307.483 241.5,307C 241.167,306.667 240.833,306.333 240.5,306C 238.189,306.155 235.856,306.155 233.5,306C 232.211,304.198 230.544,303.031 228.5,302.5C 219.882,296.216 211.882,289.216 204.5,281.5C 206.527,281.338 208.527,281.505 210.5,282C 212.293,283.78 213.96,285.613 215.5,287.5C 216.631,285.926 216.798,284.259 216,282.5C 215.667,282.833 215.333,283.167 215,283.5C 214.727,281.671 213.893,280.171 212.5,279C 210.221,278.527 208.221,277.527 206.5,276C 208.658,274.017 210.325,271.683 211.5,269C 212.448,268.517 213.448,268.351 214.5,268.5 Z"/></g>
<g><path style="opacity:0.427" fill="#2c6b10" d="M 121.5,271.5 C 122.756,271.461 123.756,271.961 124.5,273C 129.5,273.167 134.5,273.333 139.5,273.5C 156.414,272.663 172.581,272.329 188,272.5C 195.291,272.229 200.791,275.229 204.5,281.5C 201.775,280.287 199.441,278.454 197.5,276C 192.708,275.104 188.041,274.938 183.5,275.5C 163.514,274.714 143.514,274.214 123.5,274C 122.619,273.292 121.953,272.458 121.5,271.5 Z"/></g>
<g><path style="opacity:0.153" fill="#2a6511" d="M 415.5,278.5 C 413.371,280.95 410.704,282.617 407.5,283.5C 409.53,280.818 412.197,279.151 415.5,278.5 Z"/></g>
<g><path style="opacity:1" fill="#327c12" d="M 399.5,265.5 C 398.386,266.885 397.386,268.385 396.5,270C 388.261,275.225 380.261,280.891 372.5,287C 367.891,287.546 365.058,290.046 364,294.5C 363.667,294.167 363.333,293.833 363,293.5C 359.47,295.092 355.97,296.759 352.5,298.5C 367.633,286.764 383.3,275.764 399.5,265.5 Z"/></g>
<g><path style="opacity:0.129" fill="#2f6b17" d="M 407.5,283.5 C 405.23,285.975 402.563,287.975 399.5,289.5C 401.299,286.37 403.966,284.37 407.5,283.5 Z"/></g>
<g><path style="opacity:1" fill="#2c6f0d" d="M 378.5,303.5 C 375.424,307.207 371.758,310.207 367.5,312.5C 368.038,310.883 368.371,309.216 368.5,307.5C 370.167,307.5 371.833,307.5 373.5,307.5C 373.282,303.464 374.949,302.13 378.5,303.5 Z"/></g>
<g><path style="opacity:1" fill="#2d760f" d="M 228.5,302.5 C 230.544,303.031 232.211,304.198 233.5,306C 235.856,306.155 238.189,306.155 240.5,306C 240.833,306.333 241.167,306.667 241.5,307C 240.552,307.483 239.552,307.649 238.5,307.5C 238.351,308.552 238.517,309.552 239,310.5C 242.667,313.001 245.834,316.001 248.5,319.5C 241.24,314.577 234.574,308.91 228.5,302.5 Z"/></g>
<g><path style="opacity:0.094" fill="#2c6b17" d="M 302.5,320.5 C 300.692,319.082 300.025,317.082 300.5,314.5C 300.5,303.833 300.5,293.167 300.5,282.5C 299.5,282.5 298.5,282.5 297.5,282.5C 298.255,280.534 299.421,280.2 301,281.5C 301.185,294.575 301.685,307.575 302.5,320.5 Z"/></g>
<g><path style="opacity:1" fill="#2f8309" d="M 352.5,298.5 C 349.313,301.969 347.146,305.636 346,309.5C 344.599,307.808 342.766,307.141 340.5,307.5C 340.513,310.361 341.679,311.361 344,310.5C 344.257,313.493 342.757,314.826 339.5,314.5C 339.5,315.5 339.5,316.5 339.5,317.5C 341.527,317.338 343.527,317.505 345.5,318C 348.579,320.793 350.246,324.293 350.5,328.5C 348.484,331.009 348.151,333.676 349.5,336.5C 348.372,337.262 347.205,337.929 346,338.5C 345.094,335.879 344.594,336.046 344.5,339C 346.398,341.42 347.398,344.254 347.5,347.5C 341.351,337.207 335.684,326.54 330.5,315.5C 330.876,313.617 331.876,312.117 333.5,311C 339.733,306.585 346.067,302.418 352.5,298.5 Z"/></g>
<g><path style="opacity:0.886" fill="#2d760c" d="M 366.5,312.5 C 363.358,315.469 360.025,318.302 356.5,321C 358.283,325.389 360.617,329.889 363.5,334.5C 362.5,333.833 361.5,333.167 360.5,332.5C 359.667,330.298 358,328.131 355.5,326C 355.519,323.031 355.686,319.865 356,316.5C 359.786,315.847 363.286,314.514 366.5,312.5 Z"/></g>
<g><path style="opacity:1" fill="#2d8703" d="M 300.5,314.5 C 300.025,317.082 300.692,319.082 302.5,320.5C 319.075,332.234 335.241,344.567 351,357.5C 350.171,354.148 349.004,350.815 347.5,347.5C 349.103,347.312 350.437,347.812 351.5,349C 350.269,350.183 350.269,351.349 351.5,352.5C 353.995,345.518 356.995,338.851 360.5,332.5C 361.5,333.167 362.5,333.833 363.5,334.5C 368.226,342.276 372.726,350.276 377,358.5C 379.535,364.229 382.035,369.896 384.5,375.5C 384.423,376.75 383.756,377.583 382.5,378C 370.5,378.667 358.5,378.667 346.5,378C 344.937,376.053 342.937,374.886 340.5,374.5C 333.186,369.182 326.186,363.516 319.5,357.5C 319.649,356.448 319.483,355.448 319,354.5C 317.027,353.36 315.193,352.027 313.5,350.5C 316.104,346.762 315.104,345.762 310.5,347.5C 308.618,346.469 306.618,345.635 304.5,345C 303.939,343.324 302.939,341.991 301.5,341C 302.451,340.282 302.617,339.449 302,338.5C 300.167,337.333 298.667,335.833 297.5,334C 295.888,333.28 294.388,333.446 293,334.5C 291.513,333.747 291.346,332.914 292.5,332C 291.5,331.667 290.5,331.333 289.5,331C 290.34,329.334 289.84,329.167 288,330.5C 287.167,329.667 286.333,328.833 285.5,328C 287.211,326.867 287.711,325.367 287,323.5C 286.411,325.863 284.911,326.863 282.5,326.5C 282.755,323.984 283.589,321.65 285,319.5C 286.347,323.375 287.514,323.375 288.5,319.5C 289.513,310.488 289.679,301.488 289,292.5C 290.351,290.981 291.851,289.648 293.5,288.5C 293.291,287.914 292.957,287.414 292.5,287C 293.793,286.51 295.127,286.343 296.5,286.5C 296.5,285.5 296.5,284.5 296.5,283.5C 297.5,283.5 298.5,283.5 299.5,283.5C 299.172,294.014 299.506,304.347 300.5,314.5 Z"/></g>
<g><path style="opacity:0.51" fill="#2b740f" d="M 340.5,374.5 C 342.937,374.886 344.937,376.053 346.5,378C 358.5,378.667 370.5,378.667 382.5,378C 383.756,377.583 384.423,376.75 384.5,375.5C 386.104,376.287 386.771,377.62 386.5,379.5C 372.829,379.667 359.163,379.5 345.5,379C 343.76,377.483 342.094,375.983 340.5,374.5 Z"/></g>
</svg>
